<?xml version="1.0" encoding="utf-8"?>
<!-- Generator: Adobe Illustrator 23.0.1, SVG Export Plug-In . SVG Version: 6.00 Build 0)  -->
<svg version="1.1" id="Layer_1" xmlns="http://www.w3.org/2000/svg" xmlns:xlink="http://www.w3.org/1999/xlink" x="0px" y="0px"
	 viewBox="0 0 580 580" style="enable-background:new 0 0 580 580;" xml:space="preserve">
<style type="text/css">
	.st0{fill:#CA7607;}
</style>
<path class="st0" d="M413.3,111.7H249c-8.5,0-16.9,6.1-16.9,15.9v16.8c-11.4-1.4-22.6,1.5-32.7,31.7c0,17.3,0.4,34.7,0.8,52.2
	c-17.7,72-53.2,113.3-78.5,174.3c-11.5,61.6,69.7,90.6,94.8,27.4c1.2-4.4,1.6-9.3,1-14c-0.3-2.2-0.7-130.9-0.6-196.1l15.2,0.1
	L232,442.8h17.4l0.2,24.9l160.1-0.1l0.1-24.8l15,0.1V124.4C424.7,117.6,420.8,111.8,413.3,111.7L413.3,111.7z M199.7,423.4
	c-15.6,45.1-65.6,31.2-63.8-10.8c21.8-45.4,49.8-99.8,65.7-130.7C203.1,330.1,203.8,378,199.7,423.4L199.7,423.4z M391.1,239.8
	c0,5.6-3,9.7-9.4,9.7l-105.6-0.3c-6.1,0-11.3-4.5-11.3-11.1l0.5-81.5c0-6.5,4.5-10.1,10.5-10.1h104.9c5.8,0,10.4,2.4,10.4,10.4
	V239.8L391.1,239.8z"/>
</svg>
