<?xml version="1.0" encoding="utf-8"?>
<!-- Generator: Adobe Illustrator 23.0.1, SVG Export Plug-In . SVG Version: 6.00 Build 0)  -->
<svg version="1.1" id="Layer_1" xmlns="http://www.w3.org/2000/svg" xmlns:xlink="http://www.w3.org/1999/xlink" x="0px" y="0px"
	 viewBox="0 0 580 580" style="enable-background:new 0 0 580 580;" xml:space="preserve">
<style type="text/css">
	.st0{fill:#50595C;}
</style>
<path class="st0" d="M358.8,463.4c-14.1-2.2-24.2-4.4-30.5-6.6c-0.8-6.8-1.2-14.5-1.2-22.9l2.1-123.1c0-39.8-0.4-72.2-1.2-97.1
	h-20.2c-12.5,12.3-24,20.8-34.7,25.6c-15.7,7.4-33.9,11.8-54.6,13v16.9c14.5,1,24.6,2.6,30.5,4.8s9.9,4.8,12.1,7.8
	c1.2,6.6,1.8,13.1,1.8,19.3l-0.6,49.2l0.3,14.2l-0.3,15.1c0.6,10.9,0.9,18.2,0.9,22c0,4.8-0.1,10.4-0.5,16.7
	c-0.3,6.3-0.5,10.7-0.5,13.1v3.3c0,9.5-1,15.5-2.9,18.3s-5.4,4.8-10.4,6.2l-34.1,4.5l0.6,19.6c3.4,0,9.8-0.4,19-1.1
	c9.3-0.7,18.8-1.1,28.7-1.1c34.4,0,61.9,0.5,82.4,1.5c6.2,0.4,10.9,0.6,13.9,0.6c2.6,0,6.6-0.1,12.1-0.3l0.3-16.6
	C368.6,465.2,364.2,464.2,358.8,463.4L358.8,463.4z"/>
<path class="st0" d="M296.6,165.3c7,0,13.9-2.1,20.7-6.2c6.7-4.1,11.7-9.6,14.8-16.4c3.1-6.8,4.7-13.7,4.7-20.5
	c0-9.3-3.9-17.5-11.8-24.9c-7.8-7.3-17.7-11-29.6-11c-11.1,0-20.1,3.5-27.2,10.4c-7,6.9-10.6,15.8-10.6,26.7
	c0,11.5,4.1,21.3,12.2,29.6S287,165.3,296.6,165.3L296.6,165.3z"/>
</svg>
