<?xml version="1.0" encoding="utf-8"?>
<!-- Generator: Adobe Illustrator 23.0.1, SVG Export Plug-In . SVG Version: 6.00 Build 0)  -->
<svg version="1.1" id="Layer_1" xmlns="http://www.w3.org/2000/svg" xmlns:xlink="http://www.w3.org/1999/xlink" x="0px" y="0px"
	 viewBox="0 0 580 580" style="enable-background:new 0 0 580 580;" xml:space="preserve">
<style type="text/css">
	.st0{fill:#930319;}
</style>
<path class="st0" d="M509.5,158.6c-11.8-12-26.3-18.4-41.8-18.4c-15.3,0-31.3,4.6-45.7,10.7c-1.1-16.1-2.4-26.1-2.5-27
	c-0.6-4.6-4.6-8.1-9.2-8.1c0,0,0,0,0,0l-162.3,0.7l-162.4-0.7c0,0,0,0,0,0c-4.7,0-8.6,3.5-9.2,8.1c-0.3,2.1-6.7,52.9-3.5,115.6
	c4.4,85.2,24.1,148.3,58.4,187.4c26.3,29.9,60.8,45,102.6,45l0.4,0c4.6,0.2,9.3,0.3,13.7,0.3c1,0,2,0,3.1,0c3.5,0,7.1-0.1,10.6-0.3
	l0.4,0c41.8,0,76.4-15.2,102.6-45.1c5.3-6,10.2-12.6,14.8-19.7c25.6-2.1,48.8-7.7,69.1-16.7c22.6-10,41.7-24.1,56.9-41.9
	c32.7-38.4,36-80.5,36.2-92.5C542.2,224.5,532.5,182.1,509.5,158.6L509.5,158.6z M495.9,255.1c-0.1,5.8-1.9,36.3-25.4,63.9
	c-16.4,19.2-39.1,32.2-68,38.6c11.1-32.8,17.9-72.2,20.3-118.2c0.7-13.6,1-26.7,0.9-38.8c13.8-7.6,30.7-14.9,43.8-14.9
	c2.1,0,5.1,0.5,9.2,4.7C488.1,201.9,496.4,230.3,495.9,255.1L495.9,255.1z"/>
</svg>
