<?xml version="1.0" encoding="utf-8"?>
<!-- Generator: Adobe Illustrator 23.0.1, SVG Export Plug-In . SVG Version: 6.00 Build 0)  -->
<svg version="1.1" id="Layer_1" xmlns="http://www.w3.org/2000/svg" xmlns:xlink="http://www.w3.org/1999/xlink" x="0px" y="0px"
	 viewBox="0 0 98.4 92.2" style="enable-background:new 0 0 98.4 92.2;" xml:space="preserve">
<g>
	<path d="M0,92.2c0-3,0-5.7,0-8.7c1.2-0.1,2.3-0.3,3.6-0.4c0.2-1,0.3-2.1,0.5-3.2c0.8-0.2,1.6-0.3,2.5-0.5c0.1-1,0.3-2,0.4-3.1
		c1-0.1,2-0.2,3.1-0.3c0.1-0.5,0.3-1,0.3-1.5c0.3-12.3,0.5-24.7,0.8-37c0.1-2.6-0.7-4.3-2.5-6c-1-1-0.9-3.5-1.4-5.7
		c27.8,0,55,0,82.3,0c0.1,2.7,0.7,5-1.4,6.8c-0.7,0.6-1.1,2.1-1.1,3.2c0.2,13.3,0.5,26.6,0.7,40.1c1.2,0.1,2.3,0.3,3.6,0.4
		c0.2,1,0.3,2,0.5,3.1c0.8,0.2,1.6,0.4,2.5,0.5c0.1,1.1,0.2,2,0.4,3.2c1.2,0.1,2.3,0.2,3.6,0.4c0,2.9,0,5.7,0,8.8
		C65.7,92.2,33,92.2,0,92.2z M50.7,75.9c0.1-0.6,0.2-1,0.2-1.4c0.2-12.2,0.5-24.4,0.7-36.7c0-2.6,0-5.9-2.5-5.9
		c-2,0.1-2.4,3.2-2.4,5.8C47,49.9,47.2,62,47.5,74.1c0,0.6,0.2,1.2,0.3,1.8C48.9,75.9,49.7,75.9,50.7,75.9z M61,75.9
		c0.3-13,0.7-25.9,0.7-38.8c0-1.8-1.5-3.6-2.3-5.4c-0.8,1.8-2.3,3.5-2.3,5.3c0,12.6,0.4,25.1,0.7,37.7c0,0.4,0.2,0.8,0.3,1.2
		C59,75.9,59.9,75.9,61,75.9z M40.4,75.9c0.1-0.8,0.1-1.3,0.1-1.8c0.3-12.2,0.5-24.4,0.8-36.6c0.1-2.5-0.2-5.6-2.5-5.6
		c-2,0-2.3,3.1-2.3,5.5c0.2,12.3,0.4,24.6,0.7,36.9c0,0.5,0.2,1,0.3,1.6C38.5,75.9,39.3,75.9,40.4,75.9z M20.6,75.9
		c0.2-13,0.5-25.7,0.7-38.3c0.1-2.6-0.3-5.6-2.5-5.6c-1.9,0-2.3,3.1-2.2,5.5c0.2,7.8,0.4,15.6,0.5,23.5c0.1,4.9,0,9.9,0,14.9
		C18.6,75.9,19.4,75.9,20.6,75.9z M81.6,36.8c0-1.8-1.1-3.6-1.6-5.4c-0.5,0-1,0-1.6,0.1c-0.5,2.1-1.3,4.2-1.3,6.2
		c0.1,12.2,0.4,24.4,0.7,36.6c0,0.5,0.2,1,0.3,1.7c1-0.1,1.9-0.1,2.7-0.2c0.1-0.5,0.2-0.8,0.2-1.1 M29.4,31.4c-0.4,0-0.8,0-1.2,0.1
		c-0.5,1.8-1.4,3.7-1.4,5.5c0.1,12.5,0.4,25.1,0.6,37.6c0,0.4,0.2,0.8,0.3,1.5c0.9-0.1,1.8-0.1,2.7-0.2c0.3-13.3,0.6-26.4,0.8-39.5
		C31.2,34.7,30,33,29.4,31.4z M67.9,74.7c0,0.4,0.2,0.8,0.3,1.2c0.8,0,1.5,0,2.6,0c0.3-13.1,0.7-26,0.7-38.8c0-1.8-1.4-3.6-2.2-5.4
		c-0.7,1.8-2.1,3.6-2.1,5.4"/>
	<path d="M8.5,23.2c-0.8-1-1.7-1.9-2.5-2.9c-1.2-1.4-0.3-4.6,1.6-5.3C16.1,11.5,24.5,8.1,33,4.7c3.1-1.3,6.2-2.5,9.3-3.8
		c1.4-0.6,2.4-0.7,2.9,1.4c0.7,2.8,2.2,3.8,4.6,2.5c1.3-0.7,2.7-1.3,3.8,0.7c0.4,0.7,1.4,0.8,2.2,1c11,2.9,22.1,5.8,33.1,8.8
		c1,0.3,2.5,0.9,2.8,1.9c0.5,1.3,0.6,3.3-1.6,3.6c-0.3,0-0.4,1.9-0.7,3.2c-27.1,0-54.2,0-81.4,0C8.3,23.8,8.4,23.5,8.5,23.2z"/>
</g>
</svg>
