<?xml version="1.0" encoding="utf-8"?>
<!-- Generator: Adobe Illustrator 23.0.1, SVG Export Plug-In . SVG Version: 6.00 Build 0)  -->
<svg version="1.1" id="Layer_1" xmlns="http://www.w3.org/2000/svg" xmlns:xlink="http://www.w3.org/1999/xlink" x="0px" y="0px"
	 viewBox="0 0 85.5 84.8" style="enable-background:new 0 0 85.5 84.8;" xml:space="preserve">
<g>
	<path d="M50.1,84.5c-4.8-5.8-9.3-8.4-13.8,0.3c-3.4-6.9-7.1-11.2-14.5-5.2c0.1-8-2.8-11.8-10.9-9.7c1.1-6.3,3-12.7-7.1-11.5
		C6,52,11.1,46,0,43.6c6.1-4.7,10.7-8.5,2.9-14.3c6.1-2.9,13.5-4.4,6.1-13.8c8.3,1.1,13.7,0.5,11.9-8.6c6.2,1.1,12.9,5.3,13.6-6.1
		c5.7,5.5,10.4,8.1,15.1,0.4c3.1,7,7.2,10,14.1,4.8c0.6,7.1,1.9,12.7,11,8.9c-1.7,7.2-1.8,12.9,8,13.1c-5.8,6.3-4.9,11.1,2.7,15
		c-7.6,3.5-9,7.8-3.1,13.6C76.8,59,70,60.5,75.9,68.9C69,69.3,63,70,64.3,79.3C57.2,75,52.5,76.3,50.1,84.5z M41.1,72
		c0-6.7,0.2-11,0-15.3c-0.2-5.1-2.5-6.4-6.7-2.9c-3.5,2.9-7,5.9-12.1,10.2C29.8,67.1,34.4,69.1,41.1,72z M40.1,35.4
		c0.5-7.6,0.9-13.7,1.4-21.8c-6.7,2.8-11.5,4.8-17.5,7.3C29.3,25.7,33.5,29.5,40.1,35.4z M65.3,24.9c-0.9-0.2-1.8-0.4-2.7-0.7
		c-3.4,5-6.7,9.9-10.1,14.9c5.7,0.9,11.4,1.7,19.6,3C69.2,34.7,67.2,29.8,65.3,24.9z M20.5,23.8c-2.2,6.4-4,11.3-6.6,18.9
		c8.4-1.7,14-2.9,19.6-4.1C29.6,34.2,25.8,29.8,20.5,23.8z M62.4,64.4c-5.9-5.6-10.3-9.7-14.6-13.7c-0.8,0.6-1.5,1.2-2.3,1.9
		c0,5.8,0,11.6,0,19C51.3,69,56,67.1,62.4,64.4z M21.6,63.3c4.8-7,8.3-12,11.7-16.9c-5.8-0.8-11.5-1.5-19.6-2.6
		C16.6,50.9,18.6,55.8,21.6,63.3z M53.1,45c-0.7,0.8-1.3,1.6-2,2.4c4.1,4.5,8.2,8.9,13.8,14.9c2.5-6.9,4.2-11.7,6.3-17.4
		C64,45,58.6,45,53.1,45z M44.2,13.2c0.8,8.7,1.3,14.7,2,21.8c6.4-5.6,10.7-9.4,16.1-14.1C56,18.3,51.3,16.3,44.2,13.2z"/>
</g>
</svg>
