<?xml version="1.0" encoding="utf-8"?>
<!-- Generator: Adobe Illustrator 23.0.1, SVG Export Plug-In . SVG Version: 6.00 Build 0)  -->
<svg version="1.1" id="Layer_1" xmlns="http://www.w3.org/2000/svg" xmlns:xlink="http://www.w3.org/1999/xlink" x="0px" y="0px"
	 viewBox="0 0 270.9 311.2" style="enable-background:new 0 0 270.9 311.2;" xml:space="preserve">
<style type="text/css">
	.st0{fill:#FBEF53;}
</style>
<path class="st0" d="M270.9,233.9c-18.9-2.2-36-4.3-53.2-6.2c-13.2-1.4-26.5-2.4-39.7-3.9c-4.2-0.5-5.2,2.4-6.4,4.9
	c-4.7,10.2-9.3,20.6-13.8,30.9c-3.3,7.6-6.7,15.1-9.9,22.7c-3.9,9.3-7.6,18.6-11.5,27.9c-0.1,0.2-0.5,0.4-1.4,1
	c-3-6.3-6.1-12.5-8.9-18.8c-6.5-14.7-13-29.4-19.4-44.2c-2.8-6.5-5.6-13-8.3-19.6c-1.5-3.7-3.8-5.2-8-4.7
	c-23.6,2.7-47.3,5.2-70.9,7.7c-6.1,0.6-12.1,1.2-19,0.7c18.7-25.6,37.4-51.1,56.3-76.9C38,129.8,19.4,104.4,0,77.8
	c7.5,0.8,13.8,1.4,20.1,2c15.7,1.6,31.4,3.1,47.1,4.8c7.8,0.8,15.5,1.7,23.3,2.9c3.6,0.5,5.6-0.3,7.2-4c5.5-12.6,11.5-25,17.1-37.5
	c6.3-14.2,12.5-28.4,18.7-42.7c0.5-1,1.1-2,1.8-3.4c4.1,9.1,8,17.7,11.9,26.4c1.4,3.2,2.5,6.5,4,9.6c5.4,11.8,10.9,23.5,16.2,35.2
	c1.9,4.2,3.6,8.5,5.1,12.9c1.1,3.1,3,3.8,6.1,3.5c15-1.9,30-3.9,45.1-5.5c15.2-1.6,30.4-2.7,46.4-4.2
	c-19.1,26.1-37.8,51.8-56.7,77.6C232.3,181.2,251.2,207,270.9,233.9z"/>
</svg>
