<?xml version="1.0" encoding="utf-8"?>
<!-- Generator: Adobe Illustrator 23.0.1, SVG Export Plug-In . SVG Version: 6.00 Build 0)  -->
<svg version="1.1" id="Layer_1" xmlns="http://www.w3.org/2000/svg" xmlns:xlink="http://www.w3.org/1999/xlink" x="0px" y="0px"
	 viewBox="0 0 580 580" style="enable-background:new 0 0 580 580;" xml:space="preserve">
<style type="text/css">
	.st0{fill:#13D521;stroke:#231F20;stroke-width:3;stroke-miterlimit:10;}
</style>
<path class="st0" d="M408.8,271.4c-12.7-9.7-15.6-13.7-11-15.5c38.1-14.6,17.7-91-26.3-98.4c-14.5-2.4-16.5-4.2-18.8-16.6
	c-5.7-30.6-35.3-44.7-62.1-42.8c-1.2-0.1-2.5-0.2-3.7-0.3c-25.8-0.4-52.9,13.8-58.4,43.1c-2.3,12.4-4.3,16.4-18.9,16.6
	c-45.1,0.8-64.3,67.1-26.2,98.4c3.8,3.1,1.6,5.8-11.1,15.5c-64.7,49.2,5,147.5,71.2,100.3c9.7-6.9,11.2-7,13.4-1.3
	c4.6,12,2.6,69.8-3.2,89l-5.8,19h34.6c3.4,0,5.1,0,7.9,0c2.8,0,4.6,0,8.1,0h34.6l-5.6-19c-5.8-19.1-7.9-76.9-3.3-89
	c2.2-5.7,3.7-5.6,13.4,1.3C403.9,418.9,473.6,320.7,408.8,271.4L408.8,271.4z"/>
</svg>
