<?xml version="1.0" encoding="utf-8"?>
<!-- Generator: Adobe Illustrator 23.0.1, SVG Export Plug-In . SVG Version: 6.00 Build 0)  -->
<svg version="1.1" id="Layer_1" xmlns="http://www.w3.org/2000/svg" xmlns:xlink="http://www.w3.org/1999/xlink" x="0px" y="0px"
	 viewBox="0 0 580 580" style="enable-background:new 0 0 580 580;" xml:space="preserve">
<style type="text/css">
	.st0{fill:#006636;}
</style>
<path class="st0" d="M174.7,55.7c-32,0-93.8,81.1-93.8,155.2c0,59.6,27.2,110.2,64.9,127.6L138,515.1h73.6l-7.8-176.5
	c37.6-17.5,64.9-68,64.9-127.6C268.6,136.8,206.8,55.7,174.7,55.7L174.7,55.7z"/>
<path class="st0" d="M481.6,269l-9.8-202.8c0-3.9-3.1-7-7-7h-4.6c-3.9,0-7,3.1-7,7l3.3,202.8h-20.3l-5.1-204.8c0-3.9-3.1-7-7-7h-6
	c-3.9,0-7,3.1-7,7l2.8,204.8h-25.1l2.8-204.8c0-3.9-3.1-7-7-7h-6c-3.9,0-7,3.1-7,7L366.3,269h-19.8l3.3-202.8c0-3.9-3.1-7-7-7h-4.6
	c-3.9,0-7,3.1-7,7L320.9,269c0,59.6,13.7,82.1,51.4,99.6l-7.8,146.5H438l-7.8-146.5C467.9,351.1,481.6,328.7,481.6,269L481.6,269z"
	/>
</svg>
