<?xml version="1.0" encoding="utf-8"?>
<!-- Generator: Adobe Illustrator 23.0.1, SVG Export Plug-In . SVG Version: 6.00 Build 0)  -->
<svg version="1.1" id="Layer_1" xmlns="http://www.w3.org/2000/svg" xmlns:xlink="http://www.w3.org/1999/xlink" x="0px" y="0px"
	 viewBox="0 0 580 580" style="enable-background:new 0 0 580 580;" xml:space="preserve">
<style type="text/css">
	.st0{fill:#CA7607;}
	.st1{opacity:0.33;fill:#CA7607;enable-background:new    ;}
</style>
<path class="st0" d="M200.5,120.6c-20.8,0.3-41.6,5.2-60.8,14.9c-0.2,0.1-0.4,0.2-0.6,0.3c-0.3,0.1-0.6,0.3-0.9,0.4v0
	C56.9,174.8,33.6,276.9,71.4,352.1c52.5,109.8,186.7,147.4,294.3,112.7c98.7-27.2,180.9-124.4,160.5-234.1c-0.1-0.7-0.2-1.4-0.3-2
	h-0.1c-11.5-76.2-89.7-122-161.7-104.1c-25.9,6.4-49,17.2-69.6,30.8C268.2,132.2,234.5,120.1,200.5,120.6L200.5,120.6z M399.9,139.9
	c2.6-0.2,5,1.5,5.7,4l5.7,20.4c0,0.1,0.1,0.3,0.1,0.4c0.7,3-1.1,6-4.1,6.7s-6-1.1-6.7-4.1l-5.7-20.4c-0.8-2.9,0.9-6,3.8-6.8
	C399.2,140,399.6,140,399.9,139.9L399.9,139.9z M239.8,152.8c3.1-0.1,5.6,2.2,5.8,5.3s-2.2,5.6-5.3,5.8l-21.1,1.6
	c-3,0.2-5.7-2.1-5.9-5.1c-0.2-3,2.1-5.7,5.1-5.9l21.1-1.6C239.6,152.8,239.7,152.8,239.8,152.8L239.8,152.8z M137.3,163.1
	c0.4,0,0.7,0.1,1.1,0.1l20.7,4.6c0.1,0,0.2,0.1,0.3,0.1c3,0.8,4.7,3.8,4,6.8c-0.8,3-3.8,4.7-6.8,3.9L136,174c-3-0.7-4.8-3.6-4.2-6.6
	C132.4,164.8,134.8,163.1,137.3,163.1L137.3,163.1z M332.7,169.2c1.8,0,3.5,0.9,4.6,2.5c1.7,2.5,1,6-1.5,7.7l-17.2,12.3
	c-2.5,1.8-5.9,1.2-7.7-1.3c-1.8-2.5-1.2-5.9,1.3-7.7l17.2-12.3c0.1-0.1,0.2-0.1,0.3-0.2C330.5,169.5,331.6,169.2,332.7,169.2
	L332.7,169.2z M484.8,182c3.1-0.1,5.6,2.2,5.8,5.3c0.1,3.1-2.2,5.6-5.3,5.8l-21.1,1.6c-3,0.2-5.7-2.1-5.9-5.1c-0.2-3,2-5.7,5.1-5.9
	l21.1-1.6C484.5,182,484.7,182,484.8,182L484.8,182z M201.9,188.1c14.6,0.1,29.3,4.3,41.3,12.4c-33.4,37.1-61.9,89.8-80.5,131.3
	c-5.2,11-4,23.9,3.1,33.8s18.9,15.2,31,13.9c12.1-1.3,22.5-9.1,27.3-20.2c17.3-38.7,43.1-84.5,70.2-114.3
	c24.9,26.5,52.7,69.7,64.3,103.6c3.8,11.5,13.4,20.1,25.3,22.5s24.1-1.8,32.1-11c7.9-9.2,10.3-21.9,6.2-33.3
	c-14.4-41.9-45.7-91.7-75-123.9c10.5-5.6,21.5-10,33.2-12.9c4.3-1.1,8.7-1.6,13.1-1.8c30.9-0.8,62.1,21.1,66.2,51.6l0.1,1l0.2,1
	c13.6,68.9-45.4,139.9-113.5,158.7l-0.7,0.2l-0.7,0.2c-77.6,25-178.3-4.9-213.4-78.3l-0.1-0.3l-0.1-0.3
	c-21.5-42.8-6.6-105.6,36.3-125.5l0.7-0.3l0.7-0.4C179.3,190.5,190.6,188,201.9,188.1L201.9,188.1z M103.1,225.2
	c1.7,0.1,3.4,0.9,4.4,2.5c1.7,2.5,1,6-1.5,7.7l-17.2,12.3c-2.5,1.8-5.9,1.2-7.7-1.3c-1.8-2.5-1.2-5.9,1.3-7.7l17.2-12.3
	c0.1-0.1,0.2-0.2,0.3-0.2c0.8-0.5,1.7-0.8,2.6-0.9C102.6,225.2,102.8,225.1,103.1,225.2z M357.1,242.5c2.4,0,4.5,1.6,5.2,3.9
	c0.9,2.9-0.8,6-3.7,6.9l-20,6.8c-2.9,1-6-0.6-7-3.5s0.6-6,3.5-7l20-6.8c0.1,0,0.2-0.1,0.3-0.1C356,242.5,356.6,242.4,357.1,242.5
	L357.1,242.5z M255.3,245.7c3.1-0.1,5.6,2.2,5.8,5.3s-2.2,5.6-5.3,5.8l-21.1,1.6c-3,0.2-5.7-2-5.9-5.1c-0.2-3,2.1-5.7,5.1-5.9
	l21.1-1.6C255,245.7,255.2,245.7,255.3,245.7L255.3,245.7z M488.2,247.9c1.1,0,2.1,0.3,3.1,0.9l17.8,11.4c0.1,0.1,0.2,0.1,0.3,0.2
	c2.5,1.7,3.1,5.2,1.4,7.7c-1.7,2.5-5.2,3.1-7.7,1.4l-17.8-11.4c-2.6-1.6-3.3-5.1-1.7-7.7C484.7,248.8,486.4,247.9,488.2,247.9z
	 M372.2,304.8c0.4,0,0.7,0.1,1.1,0.1l20.6,4.7c0.1,0,0.3,0,0.4,0.1c3,0.8,4.7,3.8,3.9,6.8c-0.8,3-3.8,4.7-6.7,3.9l-20.6-4.6
	c-3-0.7-4.8-3.6-4.2-6.6C367.3,306.5,369.6,304.7,372.2,304.8L372.2,304.8z M196.4,309.6c1.1,0,2.1,0.2,3.1,0.9l17.8,11.4
	c0.1,0.1,0.2,0.1,0.3,0.2c2.5,1.7,3.1,5.2,1.4,7.7c-1.7,2.5-5.2,3.1-7.7,1.4l-17.8-11.5c-2.6-1.6-3.3-5.1-1.6-7.6
	C192.9,310.5,194.6,309.7,196.4,309.6z M103.6,310.9c3.1-0.1,5.6,2.2,5.8,5.3c0.1,3.1-2.2,5.6-5.3,5.8l-21.1,1.6
	c-3,0.2-5.7-2-5.9-5.1c-0.2-3,2.1-5.7,5.1-5.9l21.1-1.6C103.3,310.9,103.4,310.9,103.6,310.9L103.6,310.9z M486.5,324.6
	c1.8,0,3.5,0.9,4.6,2.5c1.7,2.5,1,6-1.6,7.7l-17.2,12.3c-2.5,1.8-5.9,1.2-7.7-1.3c-1.8-2.5-1.2-5.9,1.3-7.7l17.2-12.3
	c0.1-0.1,0.2-0.1,0.3-0.2C484.4,324.9,485.5,324.6,486.5,324.6L486.5,324.6z M125.7,361.7c2.4,0.1,4.5,1.7,5.2,4.1l5.7,20.4
	c0,0.1,0.1,0.2,0.1,0.3c0.7,3-1.1,6-4.1,6.7s-6-1.1-6.7-4.1l-5.7-20.4c-0.8-2.9,0.9-6,3.9-6.8C124.6,361.7,125.2,361.7,125.7,361.7z
	 M431.4,374.3c3-0.1,5.6,2.2,5.8,5.3l0.9,21.1c0,0.1,0,0.2,0,0.4c0,3.1-2.4,5.6-5.5,5.6s-5.6-2.4-5.6-5.5l-0.9-21.1
	C426,377,428.4,374.4,431.4,374.3L431.4,374.3z M180.8,416.4c0.4,0,0.8,0.1,1.1,0.1l20.6,4.7c0.1,0,0.3,0.1,0.4,0.1
	c3,0.8,4.7,3.8,3.9,6.7s-3.8,4.7-6.8,3.9l-20.6-4.6c-3-0.7-4.8-3.6-4.2-6.6C175.9,418.1,178.2,416.3,180.8,416.4L180.8,416.4z
	 M373.8,425.8c3.1-0.1,5.6,2.2,5.8,5.3c0.1,3.1-2.2,5.6-5.3,5.8l-21.1,1.6c-3,0.2-5.7-2-5.9-5.1c-0.2-3,2-5.7,5.1-5.9l21.1-1.6
	C373.5,425.8,373.6,425.8,373.8,425.8L373.8,425.8z M262.7,431.2c1.1,0,2.1,0.2,3.1,0.9l17.8,11.4c0.1,0.1,0.2,0.1,0.3,0.2
	c2.5,1.7,3.1,5.2,1.4,7.7c-1.7,2.5-5.2,3.1-7.7,1.4l-17.8-11.5c-2.6-1.6-3.3-5.1-1.6-7.6C259.2,432.1,260.9,431.2,262.7,431.2
	L262.7,431.2z"/>
<path class="st1" d="M201,120.7c-20.8,0.3-41.6,5.2-60.8,14.9c-0.2,0.1-0.4,0.2-0.6,0.3c-0.3,0.1-0.6,0.3-0.9,0.4v0
	C57.3,175,34.1,277.1,71.8,352.3C124.3,462.1,258.6,499.6,366.2,465c98.7-27.2,180.9-124.4,160.5-234.1c-0.1-0.7-0.2-1.4-0.3-2h-0.1
	c-11.5-76.2-89.7-122-161.7-104.1c-25.9,6.4-49,17.2-69.6,30.8C268.7,132.3,234.9,120.3,201,120.7L201,120.7z M393.8,188.3
	c30.9-0.8,62.1,21.1,66.2,51.6l0.1,1l0.2,1C474,310.8,415,381.8,346.9,400.6l-0.7,0.2l-0.7,0.2c-77.6,25-178.3-4.9-213.4-78.3
	l-0.1-0.3l-0.1-0.3c-21.5-42.8-6.6-105.6,36.3-125.5l0.7-0.3l0.7-0.4c22.8-11.9,52.6-9.6,73.9,4.7c-33.4,37.1-57.9,81.8-76.5,123.3
	c-5.2,11-4,23.9,3.1,33.8s18.9,15.2,31,13.9c12.1-1.3,22.5-9.1,27.3-20.2c17.3-38.7,39.1-76.5,66.2-106.3
	c24.9,26.5,44.7,57.7,56.3,91.6c3.8,11.5,13.4,20.1,25.3,22.5s24.1-1.8,32.1-11c7.9-9.2,10.3-21.9,6.2-33.3
	c-14.4-41.9-37.7-79.7-67-111.9c10.5-5.6,21.5-10,33.2-12.9C385,188.9,389.4,188.4,393.8,188.3L393.8,188.3z"/>
</svg>
