<?xml version="1.0" encoding="utf-8"?>
<!-- Generator: Adobe Illustrator 23.0.1, SVG Export Plug-In . SVG Version: 6.00 Build 0)  -->
<svg version="1.1" id="Layer_1" xmlns="http://www.w3.org/2000/svg" xmlns:xlink="http://www.w3.org/1999/xlink" x="0px" y="0px"
	 viewBox="0 0 580 580" style="enable-background:new 0 0 580 580;" xml:space="preserve">
<style type="text/css">
	.st0{fill:#CA7607;}
</style>
<path class="st0" d="M551,84c-3.8-6.8-12.4-9.1-19.2-5.3l-49.4,28c-3.4,1.9-5.9,5.2-6.8,9l-8.2,34.8H56.2c-4.4,0-8.5,2-11.1,5.5
	c-2.7,3.4-3.6,7.9-2.5,12.1l49.7,193.8c1.4,5.5,6,9.7,11.7,10.5l308,42.9v16.3H137.1c-6.1,0-11.2,3.8-13.2,9.2
	c-4.2,2.1-8.1,5-11.5,8.5c-7.8,8.1-12.1,18.9-12.1,30.3c0,23.8,18.7,43.1,41.7,43.1c0,0,0,0,0,0c11.2,0,21.7-4.5,29.6-12.8
	c7.8-8.1,12.1-18.9,12.1-30.3c0,0,0,0,0,0c0-7.2-1.7-13.9-4.7-19.8h172.1c-3.7,6.6-5.7,14-5.7,21.8c0,23.8,18.7,43.1,41.7,43.1
	c0,0,0,0,0,0c11.2,0,21.7-4.5,29.6-12.8c7.8-8.1,12-18.9,12.1-30.3c0,0,0,0,0,0c0-8-2.1-15.4-5.8-21.8h3c7.8,0,14.1-6.3,14.1-14.1
	v-44l52.7-234c0.2-1.1,0.4-2.2,0.3-3.3l8.5-36.2l44.1-25C552.5,99.3,554.8,90.7,551,84z M137.5,331.5h68.3v26.6l-69.9-9.7
	c1-1.5,1.5-3.3,1.5-5.2L137.5,331.5L137.5,331.5z M93.2,252.4h25.4v60.3h-10L93.2,252.4z M137.5,252.4h68.3v60.3h-68.3V252.4z
	 M427.4,312.7h-22.7v-60.3h38.8l-14.2,60.5C428.7,312.8,428,312.7,427.4,312.7z M385.9,312.7h-70.3v-60.3h70.3V312.7z M296.8,312.7
	h-72.3v-60.3h72.3V312.7z M315.6,233.6v-54.9h70.3v54.9H315.6z M296.8,233.6h-72.3v-54.9h72.3V233.6z M205.8,233.6h-68.3v-54.9h68.3
	V233.6z M224.5,331.5h72.3v39.3l-72.3-10.1L224.5,331.5z M315.6,372.2v-40.7h70.3v51.7l-70.4-9.8C315.6,373,315.6,372.6,315.6,372.2
	L315.6,372.2z M404.7,385.5v-54H425l-12.7,53.9c-0.1,0.5-0.2,1-0.3,1.5l-7.4-1C404.7,385.7,404.7,385.6,404.7,385.5L404.7,385.5z
	 M447.9,234c-0.8-0.2-1.7-0.4-2.7-0.4h-40.5v-54.9h56.1L447.9,234z M118.7,178.7v54.9H88.4l-14.1-54.9H118.7z M113.5,331.5h5.2v11.7
	c0,1,0.2,1.9,0.4,2.8l-1.9-0.3L113.5,331.5z M163.8,479.6C163.8,479.6,163.8,479.6,163.8,479.6c0,6.3-2.3,12.1-6.5,16.5
	c-4.1,4.3-9.5,6.6-15.2,6.6c0,0,0,0,0,0c-11.9,0-21.7-10.4-21.7-23.1c0-6.3,2.3-12.1,6.5-16.5c1.6-1.7,3.5-3.1,5.5-4.2
	c1.5,0.5,3.1,0.8,4.7,0.8h16.1C159.5,463.8,163.8,471.2,163.8,479.6L163.8,479.6z M408.8,481.6C408.8,481.6,408.8,481.6,408.8,481.6
	c0,6.3-2.3,12.1-6.5,16.5c-4.1,4.3-9.5,6.6-15.2,6.6c0,0,0,0,0,0c-11.9,0-21.7-10.4-21.7-23.1c0-6.3,2.3-12.1,6.5-16.5
	c2.3-2.4,5.1-4.2,8.1-5.3h14.1C402.6,462.9,408.8,471.5,408.8,481.6L408.8,481.6z"/>
</svg>
