<?xml version="1.0" encoding="utf-8"?>
<!-- Generator: Adobe Illustrator 23.0.1, SVG Export Plug-In . SVG Version: 6.00 Build 0)  -->
<svg version="1.1" id="Layer_1" xmlns="http://www.w3.org/2000/svg" xmlns:xlink="http://www.w3.org/1999/xlink" x="0px" y="0px"
	 viewBox="0 0 81.2 96.3" style="enable-background:new 0 0 81.2 96.3;" xml:space="preserve">
<style type="text/css">
	.st0{fill:none;stroke:#000000;stroke-width:5;stroke-miterlimit:10;}
</style>
<g>
	<path class="st0" d="M49.2,41.6C39.1,55.1,29,68.6,18.7,82.4c-6.1-3.3-11.8-2.9-16.1,3.9c-3.3-3.3-3.2-6.5-0.9-9.9
		c3.2-4.7,6.4-9.3,9.7-13.9c3.5-4.8,5.8-5.2,10.8-1.8c1.5,1,3,2,5.5,3.6c1.8-4.1,3-8,5-11.4c5-8.1,10.1-16.1,15.6-23.8
		c3-4.2,7.8-3.4,11.9-1.6c4.5,1.9,6.2,5.9,5.4,10.7c-0.9,5.7-2.3,11.4-3.1,17.2c-0.3,2.2-0.1,4.7,0.7,6.7c3.7,9.1,7.7,18,11.6,27
		c1.2,2.7,1.9,5.7-1.4,6.7c-1.5,0.5-4.7-1.2-5.7-2.9c-6-10-12-20-17.3-30.4c-1.8-3.6-1.7-8.2-1.8-12.4c-0.1-2.7,0.8-5.4,1.2-8.1
		C49.7,41.9,49.5,41.7,49.2,41.6z"/>
	<path class="st0" d="M73.9,14.2c0.1,5.5-4.5,10.2-10,10.2c-5.3,0-9.8-4.4-9.9-9.7C53.9,9.1,58.5,4.4,64,4.4
		C69.3,4.5,73.8,8.9,73.9,14.2z"/>
	<path class="st0" d="M47.9,63.6c1.2,2.1,2.9,4.6,4.1,7.3c0.5,1.2,0.7,3.1,0.1,4c-4.4,6.8-9,13.5-13.9,20c-0.7,0.9-3.7,1.1-4.6,0.4
		c-0.9-0.8-1.3-3.3-0.7-4.7c1.1-2.6,3.1-4.7,4.4-7.2C40.9,76.8,44.4,70.2,47.9,63.6z"/>
	<path class="st0" d="M66.3,41.3c4.2,3.9,7.3,6.9,10.6,9.9c1.2,1.1,2.9,2,3.7,3.3c0.7,1.2,0.5,2.9,0.7,4.4c-1.6,0.2-3.7,1-4.7,0.3
		c-3.3-2.1-7.1-4.3-9.1-7.5C65.8,49.2,66.6,45.1,66.3,41.3z"/>
	<path class="st0" d="M11.7,84.4c3.9,0.5,6.3,2.4,6.2,6.2c-0.1,3.7-2.4,5.9-6.1,5.8c-3.4-0.1-5.6-2.3-5.7-5.7
		C6,86.8,8.4,85,11.7,84.4z"/>
</g>
</svg>
